<?xml version="1.0" encoding="UTF-8" standalone="no"?>
<svg width="900" height="600" viewBox="0 0 900 600" fill="none" xmlns="http://www.w3.org/2000/svg">
  <rect width="900" height="600" rx="42" fill="url(#paint0_linear)"/>
  <circle cx="673" cy="150" r="92" fill="#FFFFFF" fill-opacity="0.24"/>
  <path d="M0 470C95 410 178 390 252 408C356 432 408 522 510 542C630 566 746 492 900 390V600H0V470Z" fill="#0F2745" fill-opacity="0.78"/>
  <path d="M0 318C111 258 195 246 283 276C368 306 436 386 524 402C626 422 746 362 900 228V600H0V318Z" fill="#1C4067" fill-opacity="0.34"/>
  <path d="M112 364L214 250L293 324L350 282L430 366V600H112V364Z" fill="#F5F7FB" fill-opacity="0.12"/>
  <defs>
    <linearGradient id="paint0_linear" x1="103" y1="36" x2="736" y2="594" gradientUnits="userSpaceOnUse">
      <stop stop-color="#AFC7E7"/>
      <stop offset="0.46" stop-color="#DFE7F2"/>
      <stop offset="1" stop-color="#819AB5"/>
    </linearGradient>
  </defs>
</svg>
